<svg version="1.2" xmlns="http://www.w3.org/2000/svg" viewBox="0 0 512 512" width="512" height="512"><style>.a{fill:#00768e}</style><path fill-rule="evenodd" class="a" d="m96 0h320c53 0 96 43 96 96v320c0 53-43 96-96 96h-320c-53 0-96-43-96-96v-320c0-53 43-96 96-96zm71.4 331h-83.8c-6.4 0-8.6 2.2-8.6 8.4v125.2c0 6.2 2.2 8.4 8.6 8.4h22.6c6.4 0 8.4-2.2 8.4-8.4v-40.4h42.2c6.4 0 8.6-2.2 8.6-8.6v-18c0-6.2-2.2-8.4-8.6-8.4h-42.2v-23.2h52.8c6.4 0 8.6-2.2 8.6-8.6v-18c0-6.2-2.2-8.4-8.6-8.4zm86.4 0h-55.2c-6.4 0-8.6 2.2-8.6 8.4v125.2c0 6.2 2.2 8.4 8.6 8.4h22.6c6.4 0 8.4-2.2 8.4-8.4v-34.2h24.6c31 0 51.2-17.8 51.2-49.4 0-31.8-20.4-50-51.6-50zm-4.4 64.4h-19.8v-29.4h19.8c9.4 0 15 6 15 14.8 0 8.8-5.6 14.6-15 14.6zm66.2-22.6c0 38.8 32.8 43 56.2 46.2 13.2 1.8 23.4 4 23.4 11.8 0 8.6-8 11.4-21.4 11.4-11.2 0-19-3.6-22.6-10.6-3-5.8-5.8-6.4-11.8-4.4l-18.8 6.8c-5.8 2.2-7.6 5-5.4 11 7.6 20.8 28.4 31 58.2 31 35.4 0 62-16.2 62-45.6 0-37.8-30-43.4-53.2-46.6-14.4-1.8-26.2-3.6-26.2-12.2 0-7 5.4-10.4 19-10.4 9.2 0 16.4 2.8 20.2 10.4 3.2 5.8 5.4 6.6 10.8 4.2l20-8.6c6-2.4 7.6-5.4 4.8-11.2-9.4-19.2-26.2-28-55.8-28-38.2 0-59.4 18.4-59.4 44.8zm-80.4-259.1c0-46.8-32.6-77.6-92.6-77.6-61.1 0-94.9 23.7-110.6 65.7-3.8 10.8-1.1 16.5 10.1 20.2l36.8 13.1c11.2 3.8 16.1 1.5 20.2-10.1 6.8-16.9 14.3-24.4 35.3-24.4 17.2 0 25.5 6.4 25.5 20.6 0 15-11.3 20.7-25.5 20.7h-16.5c-12 0-15.8 4.1-15.8 16.1v31.1c0 11.6 3.8 15.8 15.8 15.8h22.8c16.2 0 24.8 6 24.8 22.1 0 15-9.8 22.1-29.3 22.1-21 0-31.8-8.2-37.8-24.4-4.5-11.6-9-14.2-20.3-10.1l-36.7 13.1c-11.3 3.8-14.3 9.4-10.2 20.3 15.4 42 49.9 65.6 110.7 65.6 68.6 0 101.2-30.4 101.2-82.1 0-27-11.6-49.5-37.1-63 18.7-12.4 29.2-31.1 29.2-54.8zm34.4 19.9v82.1c0 60.4 39 97.9 106.9 97.9 67.9 0 106.9-37.5 106.9-97.9v-82.1c0-59.6-39-97.5-106.9-97.5-67.9 0-106.9 37.9-106.9 97.5zm139.5-3v88.1c0 18.8-12.4 29.3-32.6 29.3-20.3 0-32.6-10.5-32.6-29.3v-88.1c0-18.4 12.3-28.9 32.6-28.9 20.2 0 32.6 10.5 32.6 28.9z"/></svg>